<svg id="Capa_1" data-name="Capa 1" xmlns="http://www.w3.org/2000/svg" viewBox="0 0 878.55 245.83"><defs><style>.cls-1{fill:#fff;}</style></defs><path class="cls-1" d="M236.89,232.23c-6-1-12-1.72-17.89-3.21-42-10.65-74.47-46.2-81.09-89-.53-3.46-.88-7-1.27-10.44-.2-1.73.31-2.48,2.14-1.51a57.67,57.67,0,0,1,5.59,3.25,8.37,8.37,0,0,1,3.73,5.26c1.29,5.53,6.69,9.15,13.52,8.76,3.9-.23,7,1.12,10.08,3,2.23,1.35,4,3.43,6.77,3.93.82.15.62.86.38,1.35-1.95,4.08-2.61,8.14-.46,12.41a23.44,23.44,0,0,0,11.51,11.06c1.38.63,2.76,1.28,4.16,1.87a5,5,0,0,1,3,3.47c2.94,9.7,6.25,19.3,8.78,29.1,1.38,5.36,5.07,7.39,9.5,9a2.63,2.63,0,0,0,3.27-.78c.92-1.33-.36-2-1.11-2.75a10.47,10.47,0,0,1-3.16-8.7c.13-1.67.43-3.32.61-5a3.44,3.44,0,0,1,2.2-3.3c1.8-.75,2.11-2.66,2.39-4.42.81-5,1.08-10.16,2.31-15.13a14.18,14.18,0,0,1,3-6.4c2.29-2.58,2.26-4.43.42-7.35a9.12,9.12,0,0,1-1.39-5.47,13.13,13.13,0,0,0-.59-5.2c-1.49-4-2.33-4.66-6.62-4.69a33.92,33.92,0,0,1-17.39-4.61c-6.28-3.72-9.83-3.45-15.7,1.15-3.22,2.51-4.28,2.5-7.51-.13a6.51,6.51,0,0,1-1.84-1.86c-1.45-3-4.13-4-7.05-4.79-.47-.12-.92-.28-1.37-.43-4.08-1.37-6.37-4.13-6.24-7.5s2.88-6.37,6.84-7.38a6.31,6.31,0,0,1,2.35-.39c3.1.44,4.41-1.29,5-3.91,1.63-7.71,5.82-13.66,12-18.41a15.57,15.57,0,0,0,5.72-9.71,8.38,8.38,0,0,0-5.2-9.7c-4.19-1.83-8-.88-10.6,2.71a14.67,14.67,0,0,1-4.92,4.8c-3.58,1.87-7.59.92-10.22-2.46a7.52,7.52,0,0,1,.33-9.87c.74-.84,1.6-1.57,2.35-2.4,1-1.09,1.9-2.3,1-3.85A3.54,3.54,0,0,0,160.36,71a49.81,49.81,0,0,0-7.89,2c-1.11.35-2.59,1.52-3.3.65s.55-2.31,1.17-3.35c18.45-31.05,44.94-50.65,81.19-55.59,31.39-4.27,59.53,4,84.47,23.39,1.2.93,2.34,1.94,3.45,3,.89.83.65,1.43-.54,1.5a17.85,17.85,0,0,1-3.35-.06c-15.77-1.94-29.83,1.65-41.63,12.7-3.57,3.33-7.52,4.28-12.08,1.94A24.62,24.62,0,0,0,255.26,55,12.69,12.69,0,0,0,241,64.24a4.66,4.66,0,0,0,1,4.05c1.12,1.45,2.4,2.78,3.6,4.16a2.68,2.68,0,0,1,.71,3.06,3,3,0,0,1-2.94,1.68,10.38,10.38,0,0,1-3.49-.75c-1.85-.62-2.73.1-2.87,2-.12,1.51-.35,3-.45,4.52-.28,4.39-1.94,8-5.66,10.57-2.43,1.69-2.64,3.11-1,4.82,1.87,2,4.73,2.21,6.37.43,1.07-1.18,2-2.51,3-3.7,2.29-2.59,4.28-3.25,6.89-1.14,4.59,3.71,9,3.89,13.79.74a8.11,8.11,0,0,1,2.23-.85c3.35-1,5.13-.37,6.23,2.14,1.39,3.17.71,5.8-2.22,7.39a19.8,19.8,0,0,1-13.67,2.27c-1.88-.38-3.73-.89-5.59-1.36a15.48,15.48,0,0,0-19.07,11.48c-2.14,8.21-.31,15.33,5.67,21.32,2.57,2.57,5.57,2.86,8.8,1.24,6.46-3.26,11.28-2,14.68,4.61,2.68,5.19,5.78,10.42,4.8,16.73-.14.89.45,1.5.93,2.13,3.69,4.82,7.37,9.65,11.09,14.44,1.75,2.26,3.23,2.5,5.46.6a15.09,15.09,0,0,0,5.55-12.46,16.74,16.74,0,0,1,1.76-8.52c1.47-2.86,1.64-5.86-.42-8.6-3.33-4.43-2.61-8.79.11-13.13,1-1.56,2.16-3,3-4.62,1.75-3.36.56-6-3.11-6.9-4.42-1.1-8.55-2.68-11.68-6.17a9.15,9.15,0,0,1-2.66-5.5c-.06-.9,0-1.81.95-2.27a2.06,2.06,0,0,1,2.4.6c.82.77,1.58,1.59,2.35,2.4,4,4.24,13.14,3.52,14.74-4.06.06-.31.15-.62.2-.93.67-4,2.66-6.81,6.75-7.81s7.07.54,9.47,3.62c2.56,3.27,5,6.64,7.51,9.93.53.7.92,2,2.12,1.5,1-.4,1-1.56,1-2.51.17-2.71.29-5.42.49-8.12.14-2,.55-3.8,2.78-4.57a5.65,5.65,0,0,1,6,1.15,13.14,13.14,0,0,1,2.87,4.64,18.51,18.51,0,0,0,1.51,3c1.75,2.48,4.11,3.18,6.43,2a5.62,5.62,0,0,0,2.61-6.77,9.57,9.57,0,0,0-3.43-4.51c-3.29-2.6-3.09-5.71.47-7.77,4-2.33,5.19-4.75,4.47-9.34a8.38,8.38,0,0,1,0-3.56c.21-.78.54-1.6,1.43-1.77,1.08-.2,1.23.82,1.55,1.5a108.14,108.14,0,0,1,8.48,27.6,113.2,113.2,0,0,1,1.4,22.89c0,1.12-.25,2.22-.3,3.34-.09,1.59-.55,1.9-2,1-5.08-3-10.55-1.78-13,3.44a61.86,61.86,0,0,1-9.17,13.36c-1.47,1.75-2.57,3.7-2.07,6.12.84,4.12,4.05,6.15,8.22,5.09a50.89,50.89,0,0,0,5.21-1.8,17.36,17.36,0,0,1,4.63-1.2c2.34-.19,2.9.54,2.1,2.77a106.59,106.59,0,0,1-20.54,34.87,108.85,108.85,0,0,1-62.92,35.86c-3.44.66-6.93,1.09-10.39,1.62ZM212.5,49.84c-5.15.37-10.86,1-16.17,3.45-3.59,1.67-3.81,2.77-1.26,5.77,1.49,1.76,2.85,3.63,1.71,6-2.48,5.27,2.54,10,7.23,10.42a2.16,2.16,0,0,0,2.68-1.73c1.2-4.51,4.4-6.69,8.73-7.89s7.08-4.49,8.47-8.72c.94-2.84-.22-5-3-6.1A23,23,0,0,0,212.5,49.84Z"/><path class="cls-1" d="M860.05,135c-.93,4.35-1.51,8.79-3,13-5.3,14.47-15.45,23.33-30.56,26.42a56.47,56.47,0,0,1-28-1c-13.6-4.08-22.36-13.16-26.8-26.48A56.9,56.9,0,0,1,768.83,129c0-16,0-31.92,0-47.89A24.59,24.59,0,0,1,770.34,72c1.7-4.33,4.82-6.79,9.6-7.06,5.18-.29,9.3,1.23,11.56,6.25a24.51,24.51,0,0,1,1.93,10.27c0,14.76,0,29.53,0,44.29A42.18,42.18,0,0,0,795.25,138c3.39,11.16,12,15.14,22.13,13.9s15.77-7.4,17.59-18.49a56.77,56.77,0,0,0,.61-9.3c0-13.64,0-27.29,0-40.94a33,33,0,0,1,1.48-10.62c1.75-5.17,5.12-7.59,10.59-7.63,5.77-.05,9.4,2.36,11.22,7.51.47,1.35.78,2.75,1.17,4.13Z"/><path class="cls-1" d="M141.71,231.87c-4.48,0-7.83-1.81-9.78-6-5.66-12.16-11.28-24.33-17.05-36.44A121.52,121.52,0,0,0,102.32,168,23.71,23.71,0,0,0,98,163.5c-2.7-2.09-5.05-2.21-8-.45-3.79,2.27-6.51,5.64-9.12,9.07-6.6,8.68-11.89,18.16-17,27.74-4.59,8.59-9,17.26-13.66,25.83a12.29,12.29,0,0,1-13.28,6c-4.52-1-8-5-8.54-10.11A10.22,10.22,0,0,1,30.19,215c9.94-16.1,19.6-32.38,27.9-49.4,7.41-15.19,13.67-30.8,16.76-47.5,1-5.34,1.68-10.69.78-16.16-.94-5.73-3.81-9.66-9.45-11.51A60.07,60.07,0,0,0,52.1,87.72c-7.73-.61-15.46-1-23.19-1.49-6.32-.37-10.26-4-10.41-9.65-.19-7,5.33-11.71,12.27-10.42C39.17,67.73,47.53,69.51,56,71a117.08,117.08,0,0,0,30.55,1.39c10-.93,17.46-6.15,23.7-13.53,7.56-9,12.6-19.37,17.3-30,1-2.18,1.7-4.48,3.27-6.37a11,11,0,0,1,15.11-1.59,10.31,10.31,0,0,1,2.3,14.49A207.35,207.35,0,0,0,125.72,74,101.44,101.44,0,0,0,118,105c-3.31,31.94,5.94,60.9,21,88.5,3.9,7.16,8,14.19,12.45,21a11,11,0,0,1,.53,12C149.78,230.61,146.08,231.89,141.71,231.87Z"/><path class="cls-1" d="M487.47,117.55c-.11,16.21-3.4,29.34-12.71,40.52-8.58,10.29-19.7,15.75-32.89,17.2a56.69,56.69,0,0,1-28-3.5,45.78,45.78,0,0,1-25.63-24.93c-8.05-18.78-8.19-37.9.8-56.33,8-16.35,21.69-25.29,40-27,12-1.13,23.5.56,33.87,7,13.45,8.36,20.81,20.82,23.54,36.19A55.89,55.89,0,0,1,487.47,117.55Zm-27,3.49a63.51,63.51,0,0,0-.61-10.48c-1.26-7-3.81-13.37-9.15-18.3-9.5-8.77-28.9-8.28-36.76,6.79a42.62,42.62,0,0,0-4.48,19.16c-.17,7.35.71,14.52,4.3,21.09,8.86,16.23,30.91,17.44,41.05,2.23A35.16,35.16,0,0,0,460.46,121Z"/><path class="cls-1" d="M730,130.37a5.87,5.87,0,0,0,.45-3.23q0-22,0-44.06a39.59,39.59,0,0,1,1-9c1.32-5.75,5-9,10.47-9.11,6.57-.19,10.42,2.46,12.21,8.47a22.41,22.41,0,0,1,.93,6.37q0,40.69,0,81.41a19.42,19.42,0,0,1-.43,4c-1.79,8.4-9.57,11.83-17.09,7.54a26.38,26.38,0,0,1-7.77-7.37l-41.4-54.59c-.47-.62-1-1.22-1.89-2.35v3.08q0,23.1,0,46.21a24.88,24.88,0,0,1-1.47,8.93c-1.69,4.5-5.33,7-10.33,7.17s-9-2.15-11-6.6a24.22,24.22,0,0,1-1.84-9.82q-.06-38.43,0-76.86a27,27,0,0,1,.83-6.64c2.15-8.45,10.42-11.65,17.79-6.88a25.94,25.94,0,0,1,6.38,6.42Q707.44,100.59,728,127.7C728.6,128.52,729.23,129.32,730,130.37Z"/><path class="cls-1" d="M584.3,163.68c0,4.3-3.15,8.49-8.26,9.93-5.77,1.62-11.08-.4-14.09-5.36-2.4-3.95-3.41-8.42-4.65-12.78-.58-2-1.5-2.84-3.66-2.82-11.27.09-22.54.07-33.81,0-1.8,0-2.77.57-3.28,2.35-.76,2.68-1.69,5.32-2.67,7.93a36.18,36.18,0,0,1-2.38,5.22c-3.05,5.23-8.21,7.17-13.71,5.27-5-1.73-8.06-7-7.49-12.6s2.95-10.25,4.77-15.25Q506.91,113.21,519,80.93A51,51,0,0,1,521.6,75c3.5-6.71,8.91-10.63,16.68-10.41,8,.23,13.36,4.55,16.41,11.63,2.27,5.26,4,10.75,6,16.16q10.83,30.57,21.6,61.15A26.8,26.8,0,0,1,584.3,163.68ZM537.51,92.54c-.83.2-.83.77-1,1.19-3.75,11.19-7.46,22.4-11.25,33.58-.62,1.85-.12,2.46,1.77,2.45,6.48,0,13-.08,19.42,0,2.19,0,2.56-.63,1.91-2.66-2.88-9-5.63-18-8.43-26.95C539.16,97.62,538.32,95.07,537.51,92.54Z"/><path class="cls-1" d="M649.54,112c0,10.37.07,20.74,0,31.11a41.41,41.41,0,0,1-3,15.17c-3.12,7.74-8.6,13.16-16.64,15.34-11.92,3.22-23.5,2.54-33.76-5.2-4.12-3.11-6.29-7.4-5.4-12.76,1.11-6.69,6.95-10.53,13.59-9a29.73,29.73,0,0,1,7,3c9.14,4.76,12.22-.13,13.09-7.45a86,86,0,0,0,.49-10.27V82.16a28.81,28.81,0,0,1,1.53-9.88c1.85-5.16,5.27-7.39,11-7.35,5.44,0,8.92,2.48,10.71,7.52a24.19,24.19,0,0,1,1.35,8.22q0,15.67,0,31.36Z"/><path class="cls-1" d="M62.15,43.19A20,20,0,1,1,81.94,63.26,19.85,19.85,0,0,1,62.15,43.19Z"/></svg>