<svg id="Capa_1" data-name="Capa 1" xmlns="http://www.w3.org/2000/svg" viewBox="0 0 46.6 30.25"><defs><style>.cls-1{fill:#e05206;}</style></defs><path class="cls-1" d="M32.91,9.88a14.93,14.93,0,0,1,4.27.52,15.28,15.28,0,0,1,3.25,1.32,16.46,16.46,0,0,1,2.12,1.39c.21.17.42.33.62.52l.09.08c.06.09,0,.14-.07.16H43.1a8.88,8.88,0,0,1-1-.05,5.78,5.78,0,0,0-1.1,0,6.32,6.32,0,0,0-1.42.25,6.59,6.59,0,0,0-2.22,1.21l-.62.51a1.29,1.29,0,0,1-.54.26,1.21,1.21,0,0,1-.81-.12,4.72,4.72,0,0,0-1-.35,1.44,1.44,0,0,0-1.39.44,2.73,2.73,0,0,0-.45.62.73.73,0,0,0,.06.81,3.06,3.06,0,0,0,.34.39,1.16,1.16,0,0,1,.2.24.37.37,0,0,1-.18.57.7.7,0,0,1-.32,0c-.15,0-.28-.09-.43-.13s-.26,0-.29.18a4.38,4.38,0,0,0-.08.62,3.07,3.07,0,0,1-.06.53,1.77,1.77,0,0,1-.69,1c-.08.07-.17.12-.24.19a.27.27,0,0,0,0,.39.82.82,0,0,0,.4.31.48.48,0,0,0,.56-.15c.13-.15.25-.3.37-.46l.18-.19a.58.58,0,0,1,.66-.12l.22.12.45.3a.8.8,0,0,0,.84,0,5.46,5.46,0,0,1,.78-.35,1.68,1.68,0,0,1,.32-.09.53.53,0,0,1,.59.3,1,1,0,0,1,.13.44.62.62,0,0,1-.17.46,1.19,1.19,0,0,1-.36.26,3,3,0,0,1-1.53.29,3.66,3.66,0,0,1-.88-.22,2,2,0,0,0-2,.37,2.26,2.26,0,0,0-.89,1.79,3.11,3.11,0,0,0,.71,2.19,1.26,1.26,0,0,0,.74.46.85.85,0,0,0,.52-.07l.3-.16a1,1,0,0,1,1.34.13,2.17,2.17,0,0,1,.66.87l.34.81A2.1,2.1,0,0,1,35.25,30a.36.36,0,0,0,.1.28l.66.86,1,1.26a.36.36,0,0,0,.54.11,1.4,1.4,0,0,0,.42-.38,2.41,2.41,0,0,0,.5-1.62.28.28,0,0,0,0-.09.9.9,0,0,1,.1-.6l.18-.4a1.13,1.13,0,0,0-.13-1.15,1.38,1.38,0,0,1,0-1.61c.12-.2.26-.4.39-.59a1.09,1.09,0,0,0,.21-.45.55.55,0,0,0-.4-.68l-.44-.12a2.78,2.78,0,0,1-1.07-.54,1.67,1.67,0,0,1-.57-.84,1,1,0,0,1,0-.23A.25.25,0,0,1,37,23a.53.53,0,0,1,.14.11l.22.24a1.23,1.23,0,0,0,1.28.37,1,1,0,0,0,.72-.6,3.44,3.44,0,0,0,.15-.55,1.09,1.09,0,0,1,.6-.82,1.23,1.23,0,0,1,1.53.29c.38.43.69.92,1,1.38l.17.22c.12.14.24.12.29-.07a1.21,1.21,0,0,0,.06-.38c0-.29,0-.57,0-.86a1.57,1.57,0,0,1,0-.37.49.49,0,0,1,.3-.33.81.81,0,0,1,1,.27,2.23,2.23,0,0,1,.26.48,3.54,3.54,0,0,0,.16.34.74.74,0,0,0,.21.28.61.61,0,0,0,.67.15.68.68,0,0,0,.45-.57,1,1,0,0,0-.28-.82,1.74,1.74,0,0,0-.29-.25.58.58,0,0,1,.08-1,1.22,1.22,0,0,0,.29-.17,1,1,0,0,0,.4-1c0-.12,0-.24,0-.36a1.92,1.92,0,0,1,0-.24.47.47,0,0,1,.12-.28c.1-.09.18-.09.25,0a2,2,0,0,1,.1.21,15.35,15.35,0,0,1,1.14,3.81,13.8,13.8,0,0,1,.18,1.7c0,.33,0,.66,0,1s0,.6,0,.9a.41.41,0,0,1,0,.11c0,.13-.1.16-.2.07a1.18,1.18,0,0,0-.59-.27,1.24,1.24,0,0,0-1.26.62c-.08.15-.15.31-.23.47a7.2,7.2,0,0,1-.89,1.24,3,3,0,0,0-.31.39A.93.93,0,0,0,45,30a.69.69,0,0,0,.56.13,3.64,3.64,0,0,0,.71-.22l.49-.17a1.16,1.16,0,0,1,.49-.06c.22,0,.26.07.19.28A11.2,11.2,0,0,1,47,31.08,15.19,15.19,0,0,1,36.5,39.75a15.7,15.7,0,0,1-2,.31,14.79,14.79,0,0,1-1.76.06A14.44,14.44,0,0,1,29,39.54a15.46,15.46,0,0,1-4.52-2.17,16.6,16.6,0,0,1-1.54-1.23,14.34,14.34,0,0,1-2.32-2.72,14.83,14.83,0,0,1-2.23-5.16A13.59,13.59,0,0,1,18,26.07c0-.11,0-.22,0-.33s.05-.18.17-.12a5.05,5.05,0,0,1,1.17.72.64.64,0,0,1,.22.39A1.59,1.59,0,0,0,20.94,28a2,2,0,0,0,.65,0,1.43,1.43,0,0,1,.61.1,2.45,2.45,0,0,1,.58.3c.22.14.43.29.64.44a.63.63,0,0,0,.32.12c.13,0,.16,0,.11.17s-.14.34-.2.52a1.54,1.54,0,0,0,.09,1.17,3,3,0,0,0,1.49,1.52c.22.1.43.22.66.31a.74.74,0,0,1,.45.51c.44,1.44.92,2.87,1.31,4.33a1,1,0,0,0,.52.62c.22.12.44.22.66.32a.4.4,0,0,0,.42-.06.18.18,0,0,0,0-.31l-.07-.06a1.45,1.45,0,0,1-.49-1,7.16,7.16,0,0,1,.09-1,.36.36,0,0,1,.27-.32.45.45,0,0,0,.31-.4c.06-.33.1-.66.15-1a10.81,10.81,0,0,1,.28-1.59,1.4,1.4,0,0,1,.32-.57.87.87,0,0,0,.23-.38.62.62,0,0,0-.07-.56,1.43,1.43,0,0,1-.26-1,1.47,1.47,0,0,0-.23-.93.35.35,0,0,0-.05-.08.5.5,0,0,0-.48-.25,5.36,5.36,0,0,1-2.13-.38,4.28,4.28,0,0,1-.66-.37A1.52,1.52,0,0,0,26,28a1.31,1.31,0,0,0-.87.1,3,3,0,0,0-.83.54c-.18.18-.24.19-.47.07A1.71,1.71,0,0,1,23,28a.71.71,0,0,0-.42-.34c-.23-.06-.45-.14-.68-.22a1.14,1.14,0,0,1-.63-.47,1,1,0,0,1,.27-1.31,1.37,1.37,0,0,1,.91-.3c.39,0,.45-.08.57-.4a1.7,1.7,0,0,0,.1-.32,3.92,3.92,0,0,1,1.49-2.26,2.49,2.49,0,0,0,.77-1,2,2,0,0,0,.16-.69A1.1,1.1,0,0,0,25,19.61a1.3,1.3,0,0,0-.93-.13.91.91,0,0,0-.59.4,2.26,2.26,0,0,1-.44.53,1.09,1.09,0,0,1-1.08.29,1.19,1.19,0,0,1-.83-.9,1,1,0,0,1,.32-1l.3-.3a.53.53,0,0,0,.15-.32.33.33,0,0,0-.18-.32.64.64,0,0,0-.45-.07,8.54,8.54,0,0,0-1.2.33l-.23.07c-.09,0-.13,0-.11-.11l.07-.15A13.72,13.72,0,0,1,21,16.06a17.06,17.06,0,0,1,1.91-2.16,14.77,14.77,0,0,1,3-2.19,15.27,15.27,0,0,1,4.67-1.63A14,14,0,0,1,32,9.9C32.35,9.87,32.72,9.88,32.91,9.88Zm-4.36,5a5.54,5.54,0,0,0-.7,0,6,6,0,0,0-1.51.36,1.33,1.33,0,0,0-.41.25.26.26,0,0,0,0,.43l.2.21a.87.87,0,0,1,.25.46.72.72,0,0,1-.09.46.54.54,0,0,0-.05.41,1.27,1.27,0,0,0,.25.49,1.48,1.48,0,0,0,1,.44.15.15,0,0,0,.17-.11,1.18,1.18,0,0,0,.07-.2,1.61,1.61,0,0,1,.33-.6,1.66,1.66,0,0,1,.76-.41A1.76,1.76,0,0,0,30,15.84a.58.58,0,0,0-.3-.72,1.22,1.22,0,0,0-.33-.14A3.1,3.1,0,0,0,28.55,14.91Z" transform="translate(-1.7 -9.87)"/><path class="cls-1" d="M4.75,40.05a1.56,1.56,0,0,1-1.64-1.26,1.39,1.39,0,0,1,.2-1c.46-.75.91-1.5,1.36-2.26.7-1.18,1.37-2.38,2-3.59s1.08-2.18,1.53-3.31a23,23,0,0,0,1.23-4,8,8,0,0,0,.2-2.12,3.11,3.11,0,0,0-.13-.8,1.63,1.63,0,0,0-1.09-1.16,7.13,7.13,0,0,0-1.5-.36A21.31,21.31,0,0,0,4.66,20l-1.35-.07a3.72,3.72,0,0,1-.57-.08,1.26,1.26,0,0,1-1-1,1.38,1.38,0,0,1,1.12-1.75,2,2,0,0,1,.73,0l2.23.45c.79.15,1.59.27,2.39.36a12.39,12.39,0,0,0,1.72.09,10.26,10.26,0,0,0,1.56-.13A4.29,4.29,0,0,0,13.42,17a7.86,7.86,0,0,0,1.48-1.62A16.62,16.62,0,0,0,16.27,13c.24-.51.46-1,.69-1.53a1.43,1.43,0,0,1,1.41-.9,1.47,1.47,0,0,1,1.4.95,1.31,1.31,0,0,1-.13,1.32c-.24.36-.5.7-.74,1.05-.42.63-.82,1.28-1.19,1.94s-.76,1.39-1.08,2.11a14,14,0,0,0-1,3.47,18.35,18.35,0,0,0-.23,2.22c0,.39,0,.78,0,1.16a20.91,20.91,0,0,0,.4,3.25,22.24,22.24,0,0,0,1.32,4.07,34.94,34.94,0,0,0,2.12,4.13l.9,1.47a1.49,1.49,0,0,1,.06,1.56,1.3,1.3,0,0,1-.77.68,1.87,1.87,0,0,1-1.17,0,1.31,1.31,0,0,1-.81-.68c-.28-.54-.53-1.1-.78-1.65-.44-1-.89-2-1.35-2.95a24.67,24.67,0,0,0-1.38-2.59,7.29,7.29,0,0,0-.86-1.2,2.58,2.58,0,0,0-.5-.43.77.77,0,0,0-.75-.05,2.38,2.38,0,0,0-.62.43,6.08,6.08,0,0,0-.76.85A22.45,22.45,0,0,0,8.65,34.4c-.49.88-1,1.77-1.43,2.67-.36.69-.72,1.39-1.09,2.08A1.62,1.62,0,0,1,4.75,40.05Z" transform="translate(-1.7 -9.87)"/><path class="cls-1" d="M13.27,14a2.78,2.78,0,1,1-5.55,0,2.78,2.78,0,1,1,5.55,0Z" transform="translate(-1.7 -9.87)"/></svg>